<svg preserveAspectRatio="none" viewBox="0 0 1440 150" xmlns="http://www.w3.org/2000/svg"><path d="m1440 150h-1440v-150h1440z" fill="#f6f8ff"/><path d="m1440 9-34.300049 11.199997c-34.399902 11.100006-103 33.5-171.5 45.100006-68.5 11.699997-136.899902 12.699997-205.399902 7.899994-68.500061-4.899994-137.100037-15.5-205.800049-13.199997s-137.299988 17.699997-206 22.800003c-68.700012 5.199997-137.299988.199997-205.800049-10.5-68.5-10.600006-136.899902-27-205.399902-32.100006-68.5-5.199997-137.100098.800003-171.5 3.800003l-34.300049 3v103h34.300049 171.5 205.399902 205.800049 206 205.800049 205.399902 171.5 34.300049z" fill="#ff007e"/><path d="m1440 116-34.300049-.199997c-34.399902-.100006-103-.5-171.5-14.800003s-136.899902-42.699997-205.399902-45.5c-68.500061-2.800003-137.100037 19.800003-205.800049 24.5s-137.299988-8.699997-206-18.5-137.299988-16.199997-205.800049-14c-68.5 2.199997-136.899902 12.800003-205.399902 14.300003s-137.100098-6.100006-171.5-10l-34.300049-3.800003v102h34.300049 171.5 205.399902 205.800049 206 205.800049 205.399902 171.5 34.300049z" fill="#bc2a88"/><path d="m1440 78-34.300049 5c-34.399902 5-103 15-171.5 20.800003-68.5 5.899994-136.899902 7.5-205.399902 5.899994-68.500061-1.699997-137.100037-6.699997-205.800049-9.199997s-137.299988-2.5-206-6.300003c-68.700012-3.899994-137.299988-11.5-205.800049-13.199997-68.5-1.699997-136.899902 2.699997-205.399902.199997s-137.100098-11.899994-171.5-16.5l-34.300049-4.699997v90h34.300049 171.5 205.399902 205.800049 206 205.800049 205.399902 171.5 34.300049z" fill="#79357d"/><path d="m1440 143-34.300049-.5c-34.399902-.5-103-1.5-171.5-10.5s-136.899902-26-205.399902-30.199997c-68.500061-4.100006-137.100037 4.5-205.800049 11.199997s-137.299988 11.300003-206 6.699997c-68.700012-4.699997-137.299988-18.699997-205.800049-25.5-68.5-6.899994-136.899902-6.5-205.399902 1s-137.100098 22.100006-171.5 29.5l-34.300049 7.300003v18h34.300049 171.5 205.399902 205.800049 206 205.800049 205.399902 171.5 34.300049z" fill="#40305f"/><path d="m1440 135-34.300049-1c-34.399902-1-103-3-171.5-.699997-68.5 2.399994-136.899902 9-205.399902 8.199997-68.500061-.800003-137.100037-9.199997-205.800049-12.199997s-137.299988-.600006-206 3.5c-68.700012 4.199997-137.299988 10.199997-205.800049 6.199997-68.5-4-136.899902-18-205.399902-26s-137.100098-10-171.5-11l-34.300049-1v49h34.300049 171.5 205.399902 205.800049 206 205.800049 205.399902 171.5 34.300049z" fill="#1e2235"/></svg>
