<svg height="300" viewBox="0 0 1440 300" width="1440" xmlns="http://www.w3.org/2000/svg"><path d="m0 136 160 23 160-8 160-69 160-8 160 96 160-62 160-34 160-7 160 103v131h-160-160-160-160-160-160-160-160-160z" fill="#ff007e"/><path d="m0 193 160-14 160-75 160 33 160 53 160-33 160 46 160-13 160 10 160-57v158h-160-160-160-160-160-160-160-160-160z" fill="#bc2a88"/><path d="m0 235 160-36 160 13 160-40 160 23 160 1 160 6 160 27 160-55 160 21v106h-160-160-160-160-160-160-160-160-160z" fill="#79357d"/><path d="m0 235 160-37 160 56 160-57 160 3 160-9 160 20 160 45 160-70 160 56v59h-160-160-160-160-160-160-160-160-160z" fill="#40305f"/><path d="m0 261 160-33 160 16 160-21 160 12 160 20 160-33 160 56 160-42 160 3v62h-160-160-160-160-160-160-160-160-160z" fill="#1e2235"/></svg>