<svg height="150" viewBox="0 0 1440 150" width="1440" xmlns="http://www.w3.org/2000/svg"><path d="m0 0h1440v150h-1440z" fill="#f6f8ff"/><path d="m0 141 34.3-11.2c34.4-11.1 103-33.5 171.5-45.1 68.5-11.7 136.9-12.7 205.4-7.9 68.5 4.9 137.1 15.5 205.8 13.2s137.3-17.7 206-22.8c68.7-5.2 137.3-.2 205.8 10.5 68.5 10.6 136.9 27 205.4 32.1 68.5 5.2 137.1-.8 171.5-3.8l34.3-3v-103h-34.3c-34.4 0-103 0-171.5 0s-136.9 0-205.4 0-137.1 0-205.8 0-137.3 0-206 0-137.3 0-205.8 0-136.9 0-205.4 0-137.1 0-171.5 0h-34.3z" fill="#ff007e"/><path d="m0 34 34.3.2c34.4.1 103 .5 171.5 14.8s136.9 42.7 205.4 45.5 137.1-19.8 205.8-24.5 137.3 8.7 206 18.5 137.3 16.2 205.8 14 136.9-12.8 205.4-14.3 137.1 6.1 171.5 10l34.3 3.8v-102h-34.3c-34.4 0-103 0-171.5 0s-136.9 0-205.4 0-137.1 0-205.8 0-137.3 0-206 0-137.3 0-205.8 0-136.9 0-205.4 0-137.1 0-171.5 0h-34.3z" fill="#bc2a88"/><path d="m0 72 34.3-5c34.4-5 103-15 171.5-20.8 68.5-5.9 136.9-7.5 205.4-5.9 68.5 1.7 137.1 6.7 205.8 9.2s137.3 2.5 206 6.3c68.7 3.9 137.3 11.5 205.8 13.2s136.9-2.7 205.4-.2 137.1 11.9 171.5 16.5l34.3 4.7v-90h-34.3c-34.4 0-103 0-171.5 0s-136.9 0-205.4 0-137.1 0-205.8 0-137.3 0-206 0-137.3 0-205.8 0-136.9 0-205.4 0-137.1 0-171.5 0h-34.3z" fill="#79357d"/><path d="m0 7 34.3.5c34.4.5 103 1.5 171.5 10.5s136.9 26 205.4 30.2c68.5 4.1 137.1-4.5 205.8-11.2s137.3-11.3 206-6.7c68.7 4.7 137.3 18.7 205.8 25.5 68.5 6.9 136.9 6.5 205.4-1s137.1-22.1 171.5-29.5l34.3-7.3v-18h-34.3c-34.4 0-103 0-171.5 0s-136.9 0-205.4 0-137.1 0-205.8 0-137.3 0-206 0-137.3 0-205.8 0-136.9 0-205.4 0-137.1 0-171.5 0h-34.3z" fill="#40305f"/><path d="m0 15 34.3 1c34.4 1 103 3 171.5.7 68.5-2.4 136.9-9 205.4-8.2s137.1 9.2 205.8 12.2 137.3.6 206-3.5c68.7-4.2 137.3-10.2 205.8-6.2s136.9 18 205.4 26 137.1 10 171.5 11l34.3 1v-49h-34.3c-34.4 0-103 0-171.5 0s-136.9 0-205.4 0-137.1 0-205.8 0-137.3 0-206 0-137.3 0-205.8 0-136.9 0-205.4 0-137.1 0-171.5 0h-34.3z" fill="#1e2235"/></svg>
