<?xml version="1.0" encoding="utf-8"?>
<!-- Generator: Adobe Illustrator 18.1.1, SVG Export Plug-In . SVG Version: 6.00 Build 0)  -->
<svg version="1.1" id="Layer_1" xmlns="http://www.w3.org/2000/svg" xmlns:xlink="http://www.w3.org/1999/xlink" x="0px" y="0px"
	 viewBox="0 0 850 850" enable-background="new 0 0 850 850" xml:space="preserve">
<g id="XMLID_1_">
	<g>
		<polygon fill="#FBD531" points="691.9,292.5 640.2,390.3 667.3,382.1 425,800 182.7,382.1 209.8,390.3 158.1,292.5 165,292.5 
			425,737.3 685,292.5 		"/>
		<polygon fill="#FBD531" points="457.6,399.1 555.5,458.9 494.6,453.6 518,510.4 457.4,473 425,585.7 392.6,473 332,510.4 
			355.4,453.6 294.5,458.9 392.4,399.1 425,416.8 		"/>
		<polygon fill="#FBD531" points="541.3,131.6 837,50 813,95.8 797.5,96.3 808,74 544.7,148 		"/>
		<polygon fill="#FBD531" points="13,50 308.7,131.6 305.3,148 42,74 52.5,96.3 37,95.8 		"/>
		<path fill="#FBD531" d="M409.5,266.3l-16.7,12l-3.5-21.1l-48.9,8.5l40.4-41.3l-63.1-47.6l53.9,12.6l-4.7-21.1l24.9,9.8L355.6,64.7
			l69.4,98.4l69.4-98.4L458.1,178l24.9-9.8l-4.7,21.1l53.9-12.6l-63.1,47.6l40.4,41.3l-48.9-8.5l-3.5,21.1l-16.7-12l20.2,32.2
			l8.2-29.7l73.5,16.1L483.7,225l81.4-52.4l-2.2,13.9l208.8-67.2L590.3,252.1l83.9,1.9l-129.3,54.6l22.7,14.5L425,403.6l-142.6-80.5
			l22.7-14.5L175.8,254l83.9-1.9L78.3,119.3l208.8,67.2l-2.2-13.9l81.4,52.4l-58.7,59.9l73.5-16.1l8.2,29.7L409.5,266.3z M425,227.2
			l-11.4,16.1l11.4,123l11.4-123L425,227.2z"/>
	</g>
</g>
</svg>
