<?xml version="1.0" encoding="utf-8"?>
<!-- Generator: Adobe Illustrator 18.1.1, SVG Export Plug-In . SVG Version: 6.00 Build 0)  -->
<svg version="1.1" id="Layer_1" xmlns="http://www.w3.org/2000/svg" xmlns:xlink="http://www.w3.org/1999/xlink" x="0px" y="0px"
	 viewBox="0 0 850 850" enable-background="new 0 0 850 850" xml:space="preserve">
<g id="XMLID_3_">
	<g>
		<path fill="#3E73B9" d="M603.2,614.1c7.3-18.1,21.4-15.5,21.4-15.5c20.2,0,50.3,9,50.3,62.6c0,80.6-94.2,133.7-137,133.7
			s-65.5-18.4-120.2-53.6c-54.7-35.2-79-48.2-111-48.2s-53.6,21.1-53.6,44.4c0,23.3,3.2,44.4,3.2,44.4l-11.9-12.4
			c-5.2,23-25.5,30.6-37.1,30.6c-11.7,0-19.5-10-19.5-10s34.9-1.9,34.9-33.6c0-31.7,4.3-102.3,87.7-102.3
			c83.4,0,94.2,52.8,159.7,52.8S595.9,632.2,603.2,614.1z"/>
		<path fill="#3E73B9" d="M634.7,128c-7.4,15.7,5.3,5.4,19.1-2.2C667.6,118.2,784,56.2,802.1,50c0,0,4.9,52-66.6,87.7
			c-71.5,35.7-66.1,35.7-66.1,35.7s66.6-28.2,95.3-36.8c0,0-0.5,33.6-39,53c0,0-44.9,18.1-61.4,28.4c-16.5,10.3,64.2-21.9,68.9-21.7
			c4.7,0.3-0.4,17-17.2,37.1c-16.8,20-13.8,23.8-66.3,31.4c-52.5,7.6,19.2,6.2,30.3,3.3s13.3-1.6,13.5,0.3
			c0.3,1.9-2.1,11.7-9.7,21.9c-7.6,10.3-9.2,13-32.5,15.2c-23.3,2.2-30.1,0.3-30.1,3c0,2.7,24.1,11.6,39.8,13.3
			c15.7,1.6-5.2,22.2-9.7,26.3c-4.6,4.1-39.3-5.4-55.5-10s25.2,18.9,31.9,21.7c6.8,2.7,3.5,7-2.4,11.9c-6,4.9-11.9,14.9-42-3.8
			c-30.1-18.7,2.2,12.2,8.1,16.8c6,4.6-6.8,12.2-14.6,14.6c-7.8,2.4-18.9,9.7-41.1-19.2c-22.2-28.9,1.3,13.3,5.7,19
			c4.3,5.7-3.6,18.1-15.1,18.4c-11.4,0.3-20.1-0.8-50.4-54.1c-30.3-53.3,27.1-66.6,43-75c16-8.4,30.6,6.2,59.8-80.4
			S663,97.4,685.5,92.8C707.9,88.2,642.2,112.3,634.7,128z"/>
		<path fill="#3E73B9" d="M417.1,129.4c0,0,5-1.4,6.7-1.4c1.7,0,6.7,1.4,6.7,1.4s127.4,47.8,137.2,51.4c9.7,3.6,5.4,11,5.4,11
			l-3.8,8.3c-4,7.2-12.3,3.2-12.3,3.2l-126.6-48.2c0,0-4.9-2-6.6-2c-1.8,0-6.6,2-6.6,2l-126.6,48.2c0,0-8.3,4-12.3-3.2l-3.8-8.3
			c0,0-4.3-7.4,5.4-11C289.7,177.2,417.1,129.4,417.1,129.4z"/>
		<path fill="#3E73B9" d="M669.9,350.1c0,0,3.4-18.2,40.2-66.4v257.5c0,0-0.3,1.5-0.5,2c-0.2,0.5-1.1,1.6-1.1,1.6l-22.6,22.6
			c0,0-2.2,1.8-5.9,1.8c-3.8,0-10.1-10.1-10.1-10.1V350.1z"/>
		<polygon fill="#3E73B9" points="417.1,299.2 364.4,275.4 349.2,230.6 391.8,245 		"/>
		<path fill="#3E73B9" d="M421.7,756c-12.5-4.2-52.6-18.4-106.7-42.5c0,0-8.6-4.2-7-9.4c0,0,4.2-7.7,16.8-2.3
			c12.1,5.2,69.6,30.6,97.8,52.9c1.1,0.9,3.4,2.4,3.3,2.7C425.6,757.6,424.3,756.9,421.7,756z"/>
		<polygon fill="#3E73B9" points="458.2,245 500.8,230.6 485.6,275.4 432.9,299.2 		"/>
		<path fill="#3E73B9" d="M139.9,541.2V283.7c36.8,48.2,40.2,66.4,40.2,66.4v209l78.1,90.5c0,0,1.4,1.6,1.4,2.4c0,0.6-0.9,2-0.9,2
			l-7.3,7.3c0,0-1.1,0.9-1.8,0.9c-0.8,0-2.3-1.7-2.3-1.7l-83.2-93.1l-22.6-22.6c0,0-0.9-1.1-1.1-1.6
			C140.2,542.7,139.9,541.2,139.9,541.2z"/>
		<path fill="#3E73B9" d="M169.9,268.2c11.1,3,82.8,4.3,30.3-3.3c-52.5-7.6-49.5-11.4-66.3-31.4c-16.8-20-21.9-36.8-17.2-37.1
			c4.7-0.3,85.4,31.9,68.9,21.7s-61.4-28.4-61.4-28.4c-38.4-19.5-39-53-39-53c28.7,8.7,95.3,36.8,95.3,36.8s5.4,0-66-35.7
			S47.9,50,47.9,50c18.1,6.2,134.5,68.2,148.3,75.8c13.8,7.6,26.5,17.9,19.1,2.2c-7.4-15.7-73.2-39.8-50.7-35.2
			c22.5,4.6,77.4,28.4,106.6,115s43.8,72,59.8,80.4c16,8.4,73.3,21.7,43,75c-30.3,53.3-39,54.4-50.4,54.1
			c-11.5-0.3-19.4-12.7-15.1-18.4c4.3-5.7,27.9-47.9,5.7-18.9c-22.2,28.9-33.3,21.7-41.1,19.2c-7.9-2.4-20.6-10-14.6-14.6
			c5.9-4.6,38.2-35.5,8.1-16.8c-30,18.7-36,8.7-42,3.8c-6-4.9-9.2-9.2-2.4-11.9c6.8-2.7,48.2-26.2,31.9-21.7
			c-16.2,4.6-50.9,14.1-55.5,10c-4.6-4.1-25.5-24.6-9.7-26.2c15.7-1.6,39.8-10.6,39.8-13.3c0-2.7-6.8-0.8-30-3s-24.9-4.9-32.5-15.2
			c-7.6-10.3-10-20-9.7-21.9C156.7,266.5,158.8,265.2,169.9,268.2z"/>
		<path fill="#3E73B9" d="M425,318.7l-7.9,2.5l7.9,12.4l7.9-12.4L425,318.7z M398.3,346.1c0-25.3,0-46.9,0-46.9l26.7,10.1l26.7-10.1
			c0,0,0,21.7,0,46.9c0,25.3,32.5,59.9,32.5,86.6s-19.1,37.9-59.2,77.9c-40.1-40-59.2-51.2-59.2-77.9S398.3,371.4,398.3,346.1z"/>
		<path fill="#3E73B9" d="M516.3,600.8c-16.5,0-76.1,1.7-113.1-96.1l21.8,18.4l29.6-27.6c0,0,7.8,30.6,45.7,30.6
			s44.1-17.3,82.3-17.3c38.2,0,66.1,27.3,76.6,43.3c10.6,16,36.3,58.5,26,88.2c-10.3,29.8,18.1-52.5-73.4-52.5
			c0,0-24.3-1.6-45.5,5.4C545.3,600.3,532.8,600.8,516.3,600.8z"/>
		<polygon fill="#3E73B9" points="425,299.2 398.3,242.2 425,180.8 451.7,242.2 		"/>
	</g>
</g>
</svg>
