<?xml version="1.0" encoding="utf-8"?>
<!-- Generator: Adobe Illustrator 18.1.1, SVG Export Plug-In . SVG Version: 6.00 Build 0)  -->
<svg version="1.1" id="Layer_1" xmlns="http://www.w3.org/2000/svg" xmlns:xlink="http://www.w3.org/1999/xlink" x="0px" y="0px"
	 viewBox="0 0 850 850" enable-background="new 0 0 850 850" xml:space="preserve">
<g>
	<g id="XMLID_5_">
		<g>
			<path fill="#ED1E24" d="M421.6,148.3c4-9.7,12.6-5.2,12.6-5.2s-7.1,2.6-2.8,19.2c4.3,16.6,7.6,11.4,7.6,11.4c0-6.4,8-7.6,8-7.6
				c0,1.9,0.9,19.4,1.4,30.8s8.7,13.7,8.7,13.7s3.1,17,0,25.3c-3.1,8.3-2.6,30.5-2.6,33.4s6.8,10.7,7.1,6.2c0.2-4.5,2.6-9.2,2.6-9.2
				c6.7-13.5,7.4-5,7.4,5.7c0,10.7,5,17,5,24.4c0,7.3-6.2,15.6-7.8,19.4c-1.7,3.8-4.5,10.4-15.9,14.7c-11.4,4.3-16.3-5.9-16.3-5.9
				c6.2,1.2,11.6,1.6,12.3-10c0.7-11.6-8.5-23.7-8.5-23.7c-5,6.2-1.4,18.2-7.6,17.8c-6.2-0.5-10.4-13.7-1.7-33.4
				c8.8-19.7,3.3-35.8,3.3-35.8c0,1.9-5.4,10.2-8.3,13.3c-2.9,3.1-7.3,2.1-7.3,2.1c-7.3,10-8,26.3-8,26.3h-3.3
				c3.1,57.5,20.4,51.4,36.7,62.3c16.3,10.9,10.2,36,7.1,39.8c-3.1,3.8-4.3,16.1,0.5,13.7c4.7-2.4,32-21.1,32-21.1
				s178.6-105.6,217.4-188c38.8-82.4,4.7-102.8-5.7-120.3c0,0-1.4-2.1,0-6.9c0,0,17.5,5,19.4,14s3.8,13.3,10,15.4
				c6.2,2.1,10.9,6.1,10.9,33.4c0,0,7.1-10.7,13.7-13.5c0,0,0.7-10.7,0-13.7c-0.7-3.1-3.3-9,6.6-14c0,0,6.9-3.1-6.9-21.6
				c0,0-0.2-6.6,1.4-10.7c0,0,3.1,6.2,3.1,8.8c0,2.6,14.2,9.7,14.2,19.6c0,9.9-0.7,18.9,2.4,23c0,0,5.5-1.4,4.5-12.8
				c0,0,6.4,0.2,10-2.6c3.6-2.8,7.3-5.9,8.5,0c0,0-15.6,9.7-14.2,19.4c0,0,2.1,5.4,4.7,8.1c2.6,2.6-6.6,16.3-15.4,22.7
				c0,0-1.4,11.8-7.8,19.4c-6.4,7.6-8.5,10.2-8.7,17.1c-0.2,6.9-6.4,17.8-6.4,17.8s15.6-12.1,24.7-32.2c9-20.1,4.5-21.8,14.7-28
				c0,0,2.1,1.2-0.9,10.2s-0.7,13-0.7,13s11.4,1.2,12.8-11.9c1.4-13,1.2-16.6,1.2-16.6s8,6.4,6.4,15.6c-1.7,9.2-5.7,19.4-3.6,45
				c0,0-2.6,12.3-14,16.1c-11.4,3.8-7.6,11.1-7.6,11.1s15.4-0.9,16.8,2.1c0,0-14.2,3.1-13.3,8.7c1,5.7,6.2,1.4,6.4,9.5
				c0,0,5.7,1.9,5.7,7.3c0,5.4-0.4,8.3-7.1,10.6c-6.6,2.4-8.5,10.9-8.3,16.4c0.2,5.4-2.8,6.9-22,6.9c0,0-2.6,1.9,0.9,5.7
				c3.6,3.8,6.9-1.2,15.9,9.2c9,10.4,15.4-2.4,21.3-2.4c0,0,4,7-5.8,16c-9.7,9.1-15.8,8.5-17.2,18.3c0,0,7.6,3.9,17.6,3
				c0,0-2.3,4.3-10.3,6c-8,1.8-7.5,2.8-7.5,2.8s-28.4-3.9-62.7-0.7c0,0-11.7,11.2,2.6,16.2c14.4,5,27-8.7,37.5-9.6
				c0,0,3.9,3.2-6.2,11.9c-10.1,8.7-9.4,9.1-9.4,17.2c0,8.2-14.9,6.2-14.9,6.2s-2.7-0.4-2.7,16.3c0,0-2.1,2.5-5.9-5.9
				c0,0-9.1,1.4-14.5,7.1c-5.5,5.7-14.6-9.6-44.6-9.6c-30,0-32,10-32,20.1c0,0,3,13.5,15.8,1.1c0,0,6.8-2,11.7,0
				c5,1.9,16.1,6.9,20.8,11c0,0-28.1-1.6-41.7,17.3c-13.7,18.8-6.7,17.4-27.2,17.4c-20.4,0-14.4,3-25,7.1c0,0-3.2,10.8,4.6,8.5
				c7.8-2.3,27.4-8,26.8,13c0,0-11.7,0.5-13.7,1.8c-1.9,1.2,3,15.8-5.7,17.6c-8.7,1.8-11.2-2.8-15.1,6.9
				c-3.9,9.8-19.7,19.2-36.2,10.1c-16.5-9-12.1,1.2-12.1,1.2s-16.9-3.9-16.7,7.6c0,0-8.5,5.3-20.4-1.1c-11.9-6.4-21.6-6.4-32.7-0.7
				c-11,5.7-13,7.1-26.8,7.3c-13.8-0.2-15.8-1.6-26.8-7.3c-11-5.7-20.8-5.7-32.7,0.7c-11.9,6.4-20.4,1.1-20.4,1.1
				c0.2-11.5-16.7-7.6-16.7-7.6s4.4-10.3-12.1-1.3c-16.5,9.1-32.3-0.3-36.2-10.1c-3.9-9.8-6.4-5.2-15.1-6.9
				c-8.7-1.8-3.7-16.3-5.7-17.6c-1.9-1.3-13.7-1.8-13.7-1.8c-0.5-21,19-15.3,26.8-13c7.8,2.3,4.6-8.5,4.6-8.5
				c-10.7-4.1-4.6-7.1-25-7.1c-20.4,0-13.5,1.4-27.2-17.4c-13.7-18.8-41.7-17.3-41.7-17.3c4.6-4.1,15.8-9,20.8-11
				c5-1.9,11.7,0,11.7,0c12.8,12.4,15.8-1.1,15.8-1.1c0-10.1-1.9-20.1-32-20.1c-30,0-39.1,15.3-44.6,9.6c-5.5-5.7-14.6-7.1-14.6-7.1
				c-3.7,8.3-5.9,5.9-5.9,5.9c0-16.7-2.7-16.4-2.7-16.4s-14.9,2-14.9-6.2c0-8.2,0.7-8.5-9.4-17.2c-10.1-8.7-6.2-11.9-6.2-11.9
				c10.5,0.9,23.1,14.6,37.5,9.6c14.4-5,2.7-16.2,2.7-16.2c-34.3-3.2-62.7,0.7-62.7,0.7s0.5-1.1-7.5-2.8c-8-1.8-10.3-6-10.3-6
				c10,0.9,17.6-3,17.6-3c-1.4-9.8-7.5-9.2-17.2-18.3c-9.8-9.1-5.8-16-5.8-16c5.9,0,12.3,12.8,21.3,2.4c9-10.4,12.3-5.4,15.9-9.2
				c3.6-3.8,0.9-5.7,0.9-5.7c-19.2,0-22.3-1.4-22-6.9c0.2-5.5-1.7-14-8.3-16.4c-6.6-2.4-7.1-5.2-7.1-10.6c0-5.5,5.7-7.3,5.7-7.3
				c0.2-8.1,5.4-3.8,6.4-9.5c0.9-5.7-13.3-8.7-13.3-8.7c1.4-3.1,16.8-2.1,16.8-2.1s3.8-7.3-7.6-11.1c-11.4-3.8-14-16.1-14-16.1
				c2.1-25.6-1.9-35.8-3.6-45c-1.7-9.2,6.4-15.6,6.4-15.6s-0.2,3.6,1.2,16.6c1.4,13,12.8,11.9,12.8,11.9s2.4-4-0.7-13
				c-3.1-9-0.9-10.2-0.9-10.2c10.2,6.2,5.7,7.8,14.7,28c9,20.1,24.6,32.2,24.6,32.2s-6.2-10.9-6.4-17.8c-0.2-6.9-2.3-9.5-8.7-17.1
				c-6.4-7.6-7.8-19.4-7.8-19.4c-8.8-6.4-18-20.1-15.4-22.7c2.6-2.6,4.7-8.1,4.7-8.1C72.5,95.7,56.9,86,56.9,86c1.2-5.9,5-2.8,8.5,0
				c3.6,2.8,10,2.6,10,2.6c-0.9,11.4,4.5,12.8,4.5,12.8c3.1-4,2.4-13,2.4-23c0-10,14.2-17.1,14.2-19.6c0-2.6,3.1-8.8,3.1-8.8
				c1.7,4,1.4,10.7,1.4,10.7C87.2,79.1,94,82.2,94,82.2c10,5,7.3,10.9,6.6,14c-0.7,3.1,0,13.7,0,13.7c6.6,2.8,13.7,13.5,13.7,13.5
				c0-27.3,4.7-31.3,10.9-33.4c6.2-2.1,8.1-6.4,10-15.4c1.9-9,19.4-14,19.4-14c1.4,4.7,0,6.9,0,6.9c-10.4,17.5-44.5,37.9-5.7,120.3
				c38.8,82.4,217.4,188,217.4,188l35,22c0,0,3.8-5.2-0.9-12.5c-4.7-7.3-6.4-26-1.4-31c5-5,2.8-13.3,2.8-13.3
				c-28.7-21.3-26-76.7-26-76.7c8.8-2.4,17.3-10.4,17.3-10.4l3.3-26c32.4-7.3,27.2-26.1,27.5-37.7
				C424.2,178.6,417.5,158,421.6,148.3z M426,439.1l10.7-56.8c-6,0-6.4-6.9-6.4-6.9h-8.6c0,0-0.5,6.9-6.4,6.9L426,439.1z"/>
			<path fill="#ED1E24" d="M471.5,687.9c0,0,13.8,7.7,15.1,22.9c1.3,15.2-7.6,50.1-7.6,50.1s-34.2,19.2-44.2,21
				c-10,1.8-43.7-1.4-43.7-1.4s-10.7-12.1-10.7,2s18.1,9.8,18.1,9.8s-1.2,6.6-11,7.8c-9.8,1.2-19.4-11.7-19.4-18.5
				c0,0-8.4-1.2-8.4,3.4h-10.8c0,0-7.8-10.8-10.1-21.6c0,0-9,1.6-12.6-5.7s-2.3-16.9-15.3-44c0,0-7.4,2.8-10.7,0.5
				c-3.2-2.3-6.9-0.7-6.9-0.7s-2.5-4.1-1.9-9.1c0,0,8.5-2,4.6-9.1l-0.7-4.6c0,0,5-0.2,6.6,3.6c0,0,8.7,3.9,17-9.8
				c0,0,9.8,0.9,11.9-6.6V668l15.6-14.4v-3c0,0-13.1-0.2-14.2-2.5c-1.1-2.3,0.4-9.8,0.4-9.8l15.6-0.2c0,0,5.2-8.4,5.9-15.3
				c0.7-6.9,12.6-15.4,27.4-21.3c14.7-5.9,30-14,30.2-23.4c0,0,0.2-4.3-2-6.9c0,0-2.1-8.3,3.4-12.4c5.5-4.1,12.2-8.5-13.5-19.5h52.6
				c0,0,47.9-1.4,47.9,68.2c0,0,0.4,8.5-8.9,14.6c-9.2,6-14.9,21.3-34.8,19.9c0,0,21.3-17.1,20.6-24.5c-0.7-7.5-12.1-2.5-20.6,9.9
				c-8.5,12.4-18.8,11.7-18.8,11.7s-7.5,1.4-7.5,18.5c0,0-11-1.1-11,12.1c0,0,2.5,1.8,2.5,7.1h8.1c0,0-0.4,5.3-4,8.9v5h6.8
				c0,0-0.7,11,5.3,13.5c0,0,8.2-5.3,11.9-2.1c3.7,3.2-6.9,11-21.9,11c-14.9,0-33.7-8.9-36.9-26.6c0,0-13.1-1.4-13.1,36.9
				c0,0,12.1,27,31.6,27c19.5,0,6-17.8,6-17.8s10.7-6.4,18.1,6c7.4,12.4,11.7,10,11.7,10s4.3,3.6,8.5,3.6s6.4-3.9,11.7-4.3
				c0,0,0-5,3.2-9.9c3.2-5,5.7-7.1-1.4-11.7c0,0-1.8-4.6-1.1-5.3c0.7-0.7,5.1-0.7,8.9,2.1c0,0,3,1.9,2.7-5.1c-0.2-7,7.7-4.6,0-13.7
				c0,0-0.3-3.4,0.7-5.2C478.9,698.8,474.8,693.8,471.5,687.9z"/>
			<path fill="#ED1E24" d="M395.9,544c15.7,12.8,4.2,27.9,4.2,27.9h-12.4c0,0-1.3-7.6,2.1-12.6c3.4-5-0.7-8.7-0.7-8.7
				C389.1,542,395.9,544,395.9,544z"/>
		</g>
	</g>
	<g>
		<g id="XMLID_4_">
			<g>
				<path fill="#ED1E24" d="M134.4,532c-12.3-33.4-19-69.4-19-107.1c0-9.9,0.5-19.7,1.4-29.3l9.2,0.9c-0.9,9.4-1.3,18.9-1.3,28.4
					c0,114.4,64,213.8,158,264.5l-7.4,13.7C168.2,656.2,87,558.1,87,425C96.3,465.9,112.7,501.6,134.4,532z"/>
				<path fill="#ED1E24" d="M661.9,225.6l-7.1,6c-55.1-65.4-137.6-107-229.8-107c-92.2,0-174.7,41.6-229.8,107l-7.1-6
					C244.9,158.2,330,115.4,425,115.4C520,115.4,605.1,158.2,661.9,225.6z"/>
				<path fill="#ED1E24" d="M744,482.5c8-17.9,14.4-37,19.1-57.5c0,161.3-119.2,271-259.2,301.2l-2.8-10.6
					c129-33.7,224.3-151,224.3-290.6c0-9.6-0.4-19.1-1.3-28.4l9.3-0.9c0.9,9.6,1.4,19.4,1.4,29.3c0,37.6-6.7,73.7-19,107.1
					C726.4,516.8,736,500.3,744,482.5z"/>
			</g>
		</g>
	</g>
</g>
</svg>
